<svg width="71" height="27" viewBox="0 0 71 27" fill="none" xmlns="http://www.w3.org/2000/svg">
<path d="M52.7814 22.5523C49.6698 22.5523 47.7725 20.4584 47.7725 17.1926C47.7725 13.9653 49.7078 11.7753 52.6486 11.7753C55.172 11.7753 57.3539 13.3698 57.3539 17.0389V17.8073H50.1631C50.1916 19.5843 51.2256 20.6313 52.8004 20.6313C53.8629 20.6313 54.5839 20.1702 54.8874 19.5555H57.2591C56.8227 21.3613 55.172 22.5523 52.7814 22.5523ZM50.1821 16.136H55.0392C55.0202 14.7145 54.0905 13.6771 52.6865 13.6771C51.2256 13.6771 50.258 14.8009 50.1821 16.136Z" fill="#23C3E6"/>
<path d="M46.5742 8.43271V22.341H44.1456V8.43271H46.5742Z" fill="#23C3E6"/>
<path d="M33.195 26.2599V11.9098H35.5667V13.6195H35.7185C36.0979 12.8703 36.8569 11.7753 38.6783 11.7753C41.0499 11.7753 42.9283 13.6579 42.9283 17.135C42.9283 20.5736 41.1068 22.5331 38.6783 22.5331C36.8948 22.5331 36.0979 21.4573 35.7185 20.6889H35.6236V26.2599H33.195ZM35.5667 17.1158C35.5667 19.1521 36.4394 20.516 38.0142 20.516C39.608 20.516 40.4618 19.0944 40.4618 17.1158C40.4618 15.1755 39.6269 13.7732 38.0142 13.7732C36.4394 13.7732 35.5667 15.0987 35.5667 17.1158Z" fill="#23C3E6"/>
<path d="M22.2445 26.2599V11.9098H24.6162V13.6195H24.7679C25.1474 12.8703 25.9063 11.7753 27.7277 11.7753C30.0994 11.7753 31.9777 13.6579 31.9777 17.135C31.9777 20.5736 30.1563 22.5331 27.7277 22.5331C25.9443 22.5331 25.1474 21.4573 24.7679 20.6889H24.6731V26.2599H22.2445ZM24.6162 17.1158C24.6162 19.1521 25.4889 20.516 27.0637 20.516C28.6574 20.516 29.5112 19.0944 29.5112 17.1158C29.5112 15.1755 28.6764 13.7732 27.0637 13.7732C25.4889 13.7732 24.6162 15.0987 24.6162 17.1158Z" fill="#23C3E6"/>
<path d="M16.4736 22.5523C13.362 22.5523 11.4647 20.4584 11.4647 17.1926C11.4647 13.9653 13.4 11.7753 16.3408 11.7753C18.8642 11.7753 21.0461 13.3698 21.0461 17.0389V17.8073H13.8553C13.8838 19.5843 14.9178 20.6313 16.4926 20.6313C17.5551 20.6313 18.2761 20.1702 18.5796 19.5555H20.9513C20.5149 21.3613 18.8642 22.5523 16.4736 22.5523ZM13.8743 16.136H18.7314C18.7125 14.7145 17.7828 13.6771 16.3788 13.6771C14.9178 13.6771 13.9502 14.8009 13.8743 16.136Z" fill="#23C3E6"/>
<path d="M0.533142 8.43271H3.3222L6.69942 14.58H6.83223L10.2094 8.43271H12.9985L8.00856 17.135V22.341H5.54205V17.135L0.533142 8.43271Z" fill="#23C3E6"/>
<path d="M65.1738 2.05501C61.8784 1.51195 56.0109 6.04461 59.2884 14.3337C59.2884 11.796 62.1324 10.456 63.7088 10.7165C66.7568 11.2203 68.6738 9.79967 69.2802 7.75216C69.9803 5.39335 68.242 2.30696 65.1738 2.05501Z" fill="#23C3E6"/>
<path d="M65.0082 13.2419C64.2413 12.2413 61.4895 11.9683 60.299 15.0886C61.4922 14.5954 61.9342 14.601 62.4231 15.2388C63.1321 16.1646 64.0159 16.2704 64.6984 15.8655C65.485 15.3995 65.7172 14.1677 65.0082 13.2419Z" fill="#23C3E6"/>
</svg>
