<svg width="32" height="32" viewBox="0 0 32 32" fill="none" xmlns="http://www.w3.org/2000/svg">
<path d="M25.9 15.95C25.9 17.9179 25.3164 19.8417 24.2231 21.4779C23.1298 23.1142 21.5758 24.3895 19.7577 25.1426C17.9396 25.8957 15.939 26.0928 14.0088 25.7088C12.0787 25.3249 10.3058 24.3773 8.9143 22.9857C7.52277 21.5942 6.57511 19.8213 6.19119 17.8912C5.80727 15.9611 6.00432 13.9604 6.75741 12.1423C7.5105 10.3242 8.78581 8.7702 10.4221 7.67688C12.0584 6.58356 13.9821 6 15.95 6C18.5889 6 21.1197 7.04832 22.9857 8.91431C24.8517 10.7803 25.9 13.3111 25.9 15.95Z" stroke="black" stroke-width="1.2" stroke-linecap="round" stroke-linejoin="round"/>
<path d="M15.6699 9.72998V16.48" stroke="black" stroke-width="1.2" stroke-linecap="round" stroke-linejoin="round"/>
<path d="M21.1299 16.48H15.6699" stroke="black" stroke-width="1.2" stroke-linecap="round" stroke-linejoin="round"/>
</svg>
