<svg width="22" height="22" viewBox="0 0 22 22" fill="none" xmlns="http://www.w3.org/2000/svg">
<g id="Group 18">
<path id="Vector" d="M20.9 10.95C20.9 12.9179 20.3164 14.8417 19.2231 16.4779C18.1298 18.1142 16.5758 19.3895 14.7577 20.1426C12.9396 20.8957 10.939 21.0928 9.00885 20.7088C7.07873 20.3249 5.30583 19.3773 3.9143 17.9857C2.52277 16.5942 1.57511 14.8213 1.19119 12.8912C0.807265 10.9611 1.00432 8.96043 1.75741 7.1423C2.5105 5.32418 3.78581 3.7702 5.42208 2.67688C7.05835 1.58356 8.98208 1 10.95 1C13.5889 1 16.1197 2.04832 17.9857 3.91431C19.8517 5.78029 20.9 8.31111 20.9 10.95Z" stroke="black" stroke-width="1.2" stroke-linecap="round" stroke-linejoin="round"/>
<path id="Vector_2" d="M10.6699 4.72998V11.48" stroke="black" stroke-width="1.2" stroke-linecap="round" stroke-linejoin="round"/>
<path id="Vector_3" d="M16.1299 11.48H10.6699" stroke="black" stroke-width="1.2" stroke-linecap="round" stroke-linejoin="round"/>
</g>
</svg>
