<svg width="390" height="20" viewBox="0 0 390 20" fill="none" xmlns="http://www.w3.org/2000/svg">
<path d="M0 20V12.37C11.74 12.37 15.52 0 32.5 0C49.48 0 53.26 12.37 65 12.37C76.74 12.37 80.52 0 97.5 0C114.48 0 118.26 12.37 130 12.37C141.74 12.37 145.52 0 162.5 0C179.48 0 183.26 12.37 195 12.37C206.74 12.37 210.52 0 227.5 0C244.48 0 248.26 12.37 260 12.37C271.74 12.37 275.52 0 292.5 0C309.48 0 313.26 12.37 325 12.37C336.74 12.37 340.52 0 357.5 0C374.48 0 378.26 12.37 390 12.37V20H0Z" fill="#23C3E6"/>
</svg>
