<svg width="112" height="35" viewBox="0 0 112 35" fill="none" xmlns="http://www.w3.org/2000/svg">
<path d="M5.49785 0.289795L12.1033 12.1648H12.3631L18.9686 0.289795H24.4236L14.6639 17.1003V27.157H9.83965V17.1003L0.0427742 0.289795H5.49785ZM31.2206 27.5652C29.2167 27.5652 27.4725 27.1446 25.9882 26.3035C24.5162 25.45 23.3843 24.2439 22.5927 22.6853C21.8134 21.1267 21.4237 19.3022 21.4237 17.2117C21.4237 15.1459 21.8195 13.3276 22.6112 11.7566C23.4029 10.1733 24.5162 8.94246 25.9511 8.06421C27.3983 7.18595 29.0682 6.74683 30.9608 6.74683C32.6679 6.74683 34.2141 7.11174 35.5995 7.84155C36.9973 8.57137 38.1044 9.70321 38.9208 11.2371C39.7496 12.7585 40.1639 14.6511 40.1639 16.9148V18.3992H26.0995C26.1119 19.5248 26.3345 20.502 26.7675 21.3308C27.2004 22.1472 27.8003 22.7719 28.5673 23.2048C29.3342 23.6378 30.231 23.8542 31.2577 23.8542C32.2596 23.8542 33.1132 23.6625 33.8182 23.2791C34.5233 22.8956 35.0305 22.3946 35.3397 21.7761H39.9784C39.6939 22.9389 39.1558 23.9594 38.3641 24.8376C37.5725 25.7035 36.5643 26.3777 35.3397 26.8601C34.1275 27.3302 32.7544 27.5652 31.2206 27.5652ZM35.6366 15.1707C35.6242 14.2553 35.4263 13.4389 35.0429 12.7214C34.6594 12.004 34.1213 11.4412 33.4286 11.033C32.7359 10.6248 31.938 10.4207 31.035 10.4207C30.1073 10.4207 29.2785 10.6371 28.5487 11.0701C27.8313 11.4906 27.2623 12.0658 26.8417 12.7957C26.4211 13.5131 26.1799 14.3048 26.118 15.1707H35.6366ZM42.5078 7.00659H47.1464V10.3093H47.4433C47.9505 9.31974 48.6494 8.4786 49.54 7.78589C50.4306 7.09318 51.6614 6.74683 53.2324 6.74683C54.8033 6.74683 56.2135 7.14884 57.4629 7.95288C58.7246 8.75692 59.7203 9.93823 60.4502 11.4968C61.18 13.0554 61.5449 14.9233 61.5449 17.1003C61.5449 19.2651 61.1862 21.1329 60.4687 22.7039C59.7513 24.2748 58.7617 25.4747 57.5 26.3035C56.2506 27.1199 54.8281 27.5281 53.2324 27.5281C50.5605 27.5281 48.6308 26.3406 47.4433 23.9656H47.2578V34.7273H42.5078V7.00659ZM47.1464 17.0632C47.1464 18.3744 47.332 19.5248 47.7031 20.5144C48.0742 21.504 48.6185 22.2709 49.3359 22.8152C50.0533 23.3595 50.9192 23.6316 51.9336 23.6316C52.9479 23.6316 53.8138 23.3533 54.5312 22.7966C55.2487 22.24 55.7929 21.4669 56.164 20.4773C56.5351 19.4877 56.7207 18.3497 56.7207 17.0632C56.7207 15.8015 56.5351 14.682 56.164 13.7048C55.8053 12.7276 55.2672 11.9669 54.5498 11.4226C53.8323 10.8783 52.9602 10.6062 51.9336 10.6062C50.9192 10.6062 50.0533 10.8722 49.3359 11.4041C48.6185 11.936 48.0742 12.6905 47.7031 13.6677C47.332 14.6326 47.1464 15.7644 47.1464 17.0632ZM63.9258 7.00659H68.5645V10.3093H68.8614C69.3685 9.31974 70.0674 8.4786 70.958 7.78589C71.8487 7.09318 73.0795 6.74683 74.6504 6.74683C76.2214 6.74683 77.6315 7.14884 78.8809 7.95288C80.1426 8.75692 81.1384 9.93823 81.8682 11.4968C82.598 13.0554 82.9629 14.9233 82.9629 17.1003C82.9629 19.2651 82.6042 21.1329 81.8868 22.7039C81.1693 24.2748 80.1797 25.4747 78.918 26.3035C77.6687 27.1199 76.2461 27.5281 74.6504 27.5281C71.9786 27.5281 70.0489 26.3406 68.8614 23.9656H68.6758V34.7273H63.9258V7.00659ZM68.5645 17.0632C68.5645 18.3744 68.75 19.5248 69.1211 20.5144C69.4922 21.504 70.0365 22.2709 70.7539 22.8152C71.4714 23.3595 72.3373 23.6316 73.3516 23.6316C74.3659 23.6316 75.2318 23.3533 75.9493 22.7966C76.6667 22.24 77.211 21.4669 77.5821 20.4773C77.9532 19.4877 78.1387 18.3497 78.1387 17.0632C78.1387 15.8015 77.9532 14.682 77.5821 13.7048C77.2233 12.7276 76.6853 11.9669 75.9678 11.4226C75.2504 10.8783 74.3783 10.6062 73.3516 10.6062C72.3373 10.6062 71.4714 10.8722 70.7539 11.4041C70.0365 11.936 69.4922 12.6905 69.1211 13.6677C68.75 14.6326 68.5645 15.7644 68.5645 17.0632ZM90.0939 27.157H85.3439V0.289795H90.0939V27.157ZM102.235 27.5652C100.231 27.5652 98.4865 27.1446 97.0022 26.3035C95.5301 25.45 94.3983 24.2439 93.6066 22.6853C92.8273 21.1267 92.4377 19.3022 92.4377 17.2117C92.4377 15.1459 92.8335 13.3276 93.6252 11.7566C94.4169 10.1733 95.5301 8.94246 96.965 8.06421C98.4123 7.18595 100.082 6.74683 101.975 6.74683C103.682 6.74683 105.228 7.11174 106.613 7.84155C108.011 8.57137 109.118 9.70321 109.935 11.2371C110.764 12.7585 111.178 14.6511 111.178 16.9148V18.3992H97.1135C97.1258 19.5248 97.3485 20.502 97.7814 21.3308C98.2144 22.1472 98.8143 22.7719 99.5813 23.2048C100.348 23.6378 101.245 23.8542 102.272 23.8542C103.274 23.8542 104.127 23.6625 104.832 23.2791C105.537 22.8956 106.044 22.3946 106.354 21.7761H110.992C110.708 22.9389 110.17 23.9594 109.378 24.8376C108.586 25.7035 107.578 26.3777 106.354 26.8601C105.141 27.3302 103.768 27.5652 102.235 27.5652ZM106.651 15.1707C106.638 14.2553 106.44 13.4389 106.057 12.7214C105.673 12.004 105.135 11.4412 104.443 11.033C103.75 10.6248 102.952 10.4207 102.049 10.4207C101.121 10.4207 100.293 10.6371 99.5627 11.0701C98.8453 11.4906 98.2762 12.0658 97.8557 12.7957C97.4351 13.5131 97.1939 14.3048 97.132 15.1707H106.651Z" fill="#23C3E6"/>
</svg>
